<svg width="354" height="118" viewBox="0 0 354 118" fill="none" xmlns="http://www.w3.org/2000/svg">
<path d="M44.5759 35.6508L33.5899 39.2215C33.3987 39.2835 33.2333 39.4064 33.1191 39.5715C33.005 39.7365 32.9484 39.9345 32.9582 40.1348V45.2306C33.0278 47.8263 33.679 50.3734 34.8639 52.6853C36.0489 54.9972 37.7376 57.0152 39.8062 58.5913L44.7407 61.7968C44.8989 61.907 45.088 61.9645 45.2809 61.9612C45.4805 61.962 45.6755 61.9014 45.8393 61.7877L50.4168 58.5365C52.4141 56.9415 54.0227 54.9154 55.1216 52.6107C56.2205 50.306 56.7811 47.7827 56.7613 45.2306V40.0891C56.7711 39.8888 56.7145 39.6909 56.6004 39.5258C56.4862 39.3608 56.3208 39.2378 56.1296 39.1759L45.1436 35.6051C44.9543 35.5597 44.7555 35.5757 44.5759 35.6508ZM54.9303 45.2306C54.9573 47.5025 54.468 49.7509 53.4992 51.8071C52.5304 53.8632 51.1073 55.6738 49.3365 57.1028L45.2626 59.9795L40.8682 57.1302C39.0311 55.7229 37.5321 53.9244 36.4804 51.8658C35.4288 49.8072 34.851 47.5403 34.7892 45.2306V40.7558L44.8598 37.4772L54.9303 40.7558V45.2306Z" fill="#00277E"/>
<path d="M41.9392 46.9019L40.3096 48.5366L44.7314 52.9475L46.361 51.3128L51.4146 46.2717L49.7758 44.637L44.7314 49.6781L41.9392 46.9019Z" fill="#00277E"/>
<path d="M11.9015 36.9201V47.5045C11.9015 50.0251 14.236 51.5319 16.479 51.5319H19.2255C19.4683 51.5319 19.7012 51.4357 19.8729 51.2644C20.0446 51.0932 20.141 50.8609 20.141 50.6187C20.141 50.3765 20.0446 50.1442 19.8729 49.9729C19.7012 49.8016 19.4683 49.7054 19.2255 49.7054H16.479C15.1149 49.7054 13.7325 48.8835 13.7325 47.5045V36.9201H21.972V43.3128C21.972 43.555 22.0685 43.7872 22.2401 43.9585C22.4118 44.1298 22.6447 44.226 22.8875 44.226C23.1303 44.226 23.3632 44.1298 23.5349 43.9585C23.7066 43.7872 23.803 43.555 23.803 43.3128V36.9201H28.0875C29.3307 36.9245 30.5284 36.4537 31.4343 35.6044C32.3402 34.7551 32.8854 33.5919 32.958 32.3539H44.1088C46.2968 32.3539 47.606 30.7466 47.606 28.0525V25.048C47.606 24.8058 47.5095 24.5735 47.3379 24.4022C47.1662 24.2309 46.9333 24.1347 46.6905 24.1347C46.4477 24.1347 46.2148 24.2309 46.0431 24.4022C45.8715 24.5735 45.775 24.8058 45.775 25.048V28.0525C45.775 30.5274 44.5665 30.5274 44.1088 30.5274H32.958V22.3082H39.3665C39.6093 22.3082 39.8422 22.212 40.0139 22.0408C40.1856 21.8695 40.282 21.6372 40.282 21.395C40.282 21.1528 40.1856 20.9205 40.0139 20.7492C39.8422 20.578 39.6093 20.4818 39.3665 20.4818H32.958V16.2078C32.9556 14.92 32.4417 13.6856 31.5288 12.775C30.6159 11.8644 29.3785 11.3518 28.0875 11.3494H12.1945C10.9035 11.3518 9.66607 11.8644 8.7532 12.775C7.84034 13.6856 7.32643 14.92 7.32401 16.2078V32.0616C7.31954 33.3018 7.79153 34.4964 8.64293 35.4001C9.49433 36.3037 10.6604 36.8477 11.9015 36.9201ZM9.15501 16.2078C9.15742 15.4044 9.47842 14.6346 10.0479 14.0665C10.6174 13.4985 11.3891 13.1783 12.1945 13.1758H28.0875C28.8929 13.1783 29.6646 13.4985 30.2341 14.0665C30.8036 14.6346 31.1246 15.4044 31.127 16.2078V32.0616C31.1246 32.865 30.8036 33.6348 30.2341 34.2029C29.6646 34.771 28.8929 35.0912 28.0875 35.0936H12.1945C11.3891 35.0912 10.6174 34.771 10.0479 34.2029C9.47842 33.6348 9.15742 32.865 9.15501 32.0616V16.2078Z" fill="#00277E"/>
<path d="M78.4402 11.3494H62.5471C61.3039 11.3449 60.1063 11.8158 59.2004 12.6651C58.2945 13.5144 57.7492 14.6776 57.6767 15.9156H46.8829C44.5392 15.9156 42.1132 17.395 42.1132 19.8699V23.2215C42.1132 23.4637 42.2096 23.696 42.3813 23.8673C42.553 24.0385 42.7859 24.1347 43.0287 24.1347C43.2715 24.1347 43.5043 24.0385 43.676 23.8673C43.8477 23.696 43.9442 23.4637 43.9442 23.2215V19.8699C43.9442 18.5549 45.473 17.7421 46.8829 17.7421H57.6767V25.9612H50.3527C50.1099 25.9612 49.877 26.0574 49.7053 26.2287C49.5336 26.4 49.4372 26.6323 49.4372 26.8745C49.4372 27.1167 49.5336 27.349 49.7053 27.5202C49.877 27.6915 50.1099 27.7877 50.3527 27.7877H57.6767V32.0617C57.6774 33.1398 58.0376 34.1871 58.7006 35.0386C59.3636 35.89 60.2917 36.4973 61.3387 36.7649C61.3342 36.8165 61.3342 36.8684 61.3387 36.9201V47.605C61.3387 50.0342 63.9021 51.5319 66.2824 51.5319H68.6627C68.9055 51.5319 69.1383 51.4357 69.31 51.2645C69.4817 51.0932 69.5782 50.8609 69.5782 50.6187C69.5782 50.3765 69.4817 50.1442 69.31 49.9729C69.1383 49.8017 68.9055 49.7055 68.6627 49.7055H66.2824C64.7809 49.7055 63.1697 48.8561 63.1697 47.605V36.9201H71.4092V43.3128C71.4092 43.555 71.5056 43.7873 71.6773 43.9585C71.849 44.1298 72.0819 44.226 72.3247 44.226C72.5675 44.226 72.8003 44.1298 72.972 43.9585C73.1437 43.7873 73.2402 43.555 73.2402 43.3128V36.9201H78.4402C79.7312 36.9177 80.9686 36.405 81.8815 35.4944C82.7943 34.5838 83.3083 33.3495 83.3107 32.0617V16.2078C83.3083 14.92 82.7943 13.6857 81.8815 12.7751C80.9686 11.8645 79.7312 11.3518 78.4402 11.3494ZM81.4797 32.0617C81.4773 32.8651 81.1562 33.6348 80.5868 34.2029C80.0173 34.771 79.2456 35.0912 78.4402 35.0936H62.5471C61.7418 35.0912 60.9701 34.771 60.4006 34.2029C59.8311 33.6348 59.5101 32.8651 59.5077 32.0617V16.2078C59.5101 15.4044 59.8311 14.6347 60.4006 14.0666C60.9701 13.4985 61.7418 13.1783 62.5471 13.1759H78.4402C79.2456 13.1783 80.0173 13.4985 80.5868 14.0666C81.1562 14.6347 81.4773 15.4044 81.4797 16.2078V32.0617Z" fill="#00277E"/>
<path d="M78.7332 61.5776V50.3721C78.7454 49.8084 78.6445 49.248 78.4363 48.7238C78.2282 48.1996 77.9171 47.7223 77.5213 47.3198C77.1255 46.9173 76.653 46.5978 76.1316 46.3802C75.6102 46.1626 75.0505 46.0512 74.4853 46.0525H70.4937C70.2509 46.0525 70.018 46.1487 69.8463 46.32C69.6746 46.4912 69.5782 46.7235 69.5782 46.9657C69.5782 47.2079 69.6746 47.4402 69.8463 47.6115C70.018 47.7828 70.2509 47.879 70.4937 47.879H74.4853C74.8101 47.8775 75.1318 47.9416 75.4311 48.0674C75.7305 48.1933 76.0012 48.3782 76.227 48.6111C76.4528 48.8441 76.629 49.1201 76.745 49.4228C76.8611 49.7254 76.9145 50.0483 76.9022 50.3721V61.5776H68.6627V54.2717C68.6627 54.0295 68.5662 53.7972 68.3945 53.6259C68.2228 53.4546 67.99 53.3584 67.7472 53.3584C67.5044 53.3584 67.2715 53.4546 67.0998 53.6259C66.9281 53.7972 66.8317 54.0295 66.8317 54.2717V61.5776H62.5471C61.4663 61.5783 60.4165 61.9376 59.5629 62.599C58.7093 63.2603 58.1005 64.1861 57.8323 65.2305C57.7805 65.2261 57.7284 65.2261 57.6767 65.2305H46.8829C45.6665 65.2417 44.4991 65.7108 43.6147 66.544C42.7302 67.3771 42.1939 68.5128 42.1132 69.7237V72.5364C42.1132 72.7787 42.2096 73.0109 42.3813 73.1822C42.553 73.3535 42.7859 73.4497 43.0287 73.4497C43.2715 73.4497 43.5043 73.3535 43.676 73.1822C43.8477 73.0109 43.9442 72.7787 43.9442 72.5364V69.7237C44.0336 69.0022 44.3792 68.3365 44.9183 67.8473C45.4574 67.3581 46.1544 67.0777 46.8829 67.057H57.6767V75.2762H50.3527C50.1099 75.2762 49.877 75.3724 49.7053 75.5436C49.5336 75.7149 49.4372 75.9472 49.4372 76.1894C49.4372 76.4316 49.5336 76.6639 49.7053 76.8352C49.877 77.0064 50.1099 77.1026 50.3527 77.1026H57.6767V82.2898C57.6791 83.5776 58.193 84.812 59.1059 85.7226C60.0187 86.6332 61.2561 87.1459 62.5471 87.1483H78.4402C79.7312 87.1459 80.9686 86.6332 81.8815 85.7226C82.7943 84.812 83.3083 83.5776 83.3107 82.2898V66.436C83.3151 65.1959 82.8431 64.0012 81.9917 63.0976C81.1403 62.1939 79.9742 61.65 78.7332 61.5776ZM81.4797 82.2624C81.4821 82.6626 81.4053 83.0592 81.2538 83.4297C81.1022 83.8002 80.8788 84.1372 80.5965 84.4214C80.3141 84.7056 79.9783 84.9314 79.6083 85.0859C79.2383 85.2405 78.8413 85.3206 78.4402 85.3218H62.5471C61.7418 85.3194 60.9701 84.9992 60.4006 84.4311C59.8311 83.863 59.5101 83.0932 59.5077 82.2898V66.436C59.5101 65.6326 59.8311 64.8628 60.4006 64.2948C60.9701 63.7267 61.7418 63.4065 62.5471 63.4041H78.4402C79.2456 63.4065 80.0173 63.7267 80.5868 64.2948C81.1563 64.8628 81.4773 65.6326 81.4797 66.436V82.2624Z" fill="#00277E"/>
<path d="M46.6905 73.4497C46.4477 73.4497 46.2148 73.5459 46.0431 73.7172C45.8714 73.8884 45.775 74.1207 45.775 74.3629V77.9063C45.775 78.7647 45.6102 80.7556 44.1088 80.7556H32.958V72.5364H39.3665C39.6093 72.5364 39.8421 72.4402 40.0138 72.269C40.1855 72.0977 40.282 71.8654 40.282 71.6232C40.282 71.381 40.1855 71.1487 40.0138 70.9774C39.8421 70.8062 39.6093 70.71 39.3665 70.71H32.958V66.436C32.9624 65.1959 32.4904 64.0012 31.639 63.0975C30.7876 62.1939 29.6215 61.65 28.3805 61.5776V50.2717C28.3805 47.6689 26.9706 46.0525 24.7185 46.0525H21.0565C20.8137 46.0525 20.5808 46.1487 20.4091 46.32C20.2374 46.4912 20.141 46.7235 20.141 46.9657C20.141 47.2079 20.2374 47.4402 20.4091 47.6115C20.5808 47.7828 20.8137 47.879 21.0565 47.879H24.7185C25.9452 47.879 26.5495 48.6826 26.5495 50.2717V61.5776H18.31V54.2716C18.31 54.0294 18.2135 53.7972 18.0418 53.6259C17.8701 53.4546 17.6373 53.3584 17.3945 53.3584C17.1517 53.3584 16.9188 53.4546 16.7471 53.6259C16.5754 53.7972 16.479 54.0294 16.479 54.2716V61.5776H12.1944C10.9035 61.58 9.66604 62.0926 8.75317 63.0032C7.84031 63.9138 7.32639 65.1482 7.32397 66.436V82.2898C7.32639 83.5776 7.84031 84.812 8.75317 85.7226C9.66604 86.6332 10.9035 87.1459 12.1944 87.1483H28.0875C29.3307 87.1527 30.5283 86.6819 31.4342 85.8326C32.3401 84.9833 32.8854 83.8201 32.958 82.5821H44.1088C46.2693 82.5821 47.606 80.7556 47.606 77.9063V74.3629C47.606 74.1207 47.5095 73.8884 47.3378 73.7172C47.1661 73.5459 46.9333 73.4497 46.6905 73.4497ZM31.127 82.2898C31.1246 83.0932 30.8036 83.863 30.2341 84.4311C29.6646 84.9992 28.8929 85.3194 28.0875 85.3218H12.1944C11.3891 85.3194 10.6174 84.9992 10.0479 84.4311C9.47839 83.863 9.15739 83.0932 9.15497 82.2898V66.436C9.15739 65.6326 9.47839 64.8628 10.0479 64.2947C10.6174 63.7267 11.3891 63.4065 12.1944 63.404H28.0875C28.8929 63.4065 29.6646 63.7267 30.2341 64.2947C30.8036 64.8628 31.1246 65.6326 31.127 66.436V82.2898Z" fill="#00277E"/>
<path d="M70.1458 23.2032C72.2643 23.2032 73.9817 21.49 73.9817 19.3767C73.9817 17.2634 72.2643 15.5502 70.1458 15.5502C68.0272 15.5502 66.3098 17.2634 66.3098 19.3767C66.3098 21.49 68.0272 23.2032 70.1458 23.2032Z" fill="#00277E"/>
<path d="M72.9198 24.1348H67.3627C66.2363 24.1974 65.176 24.6854 64.3972 25.4996C63.6185 26.3137 63.1796 27.3931 63.1697 28.5184V33.2672H76.9022V28.5184C76.9402 27.4146 76.5455 26.3394 75.802 25.5211C75.0585 24.7027 74.0247 24.2054 72.9198 24.1348Z" fill="#00277E"/>
<path d="M19.7932 23.2032C21.9118 23.2032 23.6292 21.49 23.6292 19.3767C23.6292 17.2634 21.9118 15.5502 19.7932 15.5502C17.6747 15.5502 15.9573 17.2634 15.9573 19.3767C15.9573 21.49 17.6747 23.2032 19.7932 23.2032Z" fill="#00277E"/>
<path d="M26.5496 28.5184C26.5876 27.4146 26.193 26.3394 25.4495 25.5211C24.706 24.7027 23.6721 24.2054 22.5672 24.1348H17.0101C15.8837 24.1974 14.8235 24.6854 14.0447 25.4996C13.2659 26.3137 12.827 27.3931 12.8171 28.5184V33.2672H26.5496V28.5184Z" fill="#00277E"/>
<path d="M19.7932 73.4315C21.9118 73.4315 23.6292 71.7183 23.6292 69.605C23.6292 67.4917 21.9118 65.7785 19.7932 65.7785C17.6747 65.7785 15.9573 67.4917 15.9573 69.605C15.9573 71.7183 17.6747 73.4315 19.7932 73.4315Z" fill="#00277E"/>
<path d="M22.5672 74.363H17.0101C15.8837 74.4256 14.8235 74.9135 14.0447 75.7277C13.2659 76.5419 12.827 77.6212 12.8171 78.7465V83.4954H26.5496V78.7465C26.5876 77.6427 26.193 76.5676 25.4495 75.7492C24.706 74.9308 23.6721 74.4336 22.5672 74.363Z" fill="#00277E"/>
<path d="M71.0614 73.4315C73.1799 73.4315 74.8973 71.7183 74.8973 69.605C74.8973 67.4917 73.1799 65.7785 71.0614 65.7785C68.9429 65.7785 67.2255 67.4917 67.2255 69.605C67.2255 71.7183 68.9429 73.4315 71.0614 73.4315Z" fill="#00277E"/>
<path d="M73.835 74.363H68.278C67.1516 74.4256 66.0913 74.9135 65.3125 75.7277C64.5337 76.5419 64.0948 77.6212 64.085 78.7465V83.4954H77.8175V78.7465C77.8554 77.6427 77.4608 76.5676 76.7173 75.7492C75.9738 74.9308 74.94 74.4336 73.835 74.363Z" fill="#00277E"/>
<path d="M93.3484 83.144C92.2324 83.144 91.3984 82.754 90.8464 81.974C90.3064 81.182 90.0364 79.988 90.0364 78.392V71.732C90.0364 70.304 90.3544 69.224 90.9904 68.492C91.6264 67.76 92.5744 67.394 93.8344 67.394C94.8544 67.394 95.6464 67.598 96.2104 68.006C96.7744 68.414 97.1644 69.008 97.3804 69.788C97.5964 70.568 97.7044 71.57 97.7044 72.794H94.6804V71.408C94.6804 71.036 94.6264 70.748 94.5184 70.544C94.4224 70.34 94.2424 70.238 93.9784 70.238C93.3904 70.238 93.0964 70.622 93.0964 71.39V78.878C93.0964 79.346 93.1564 79.7 93.2764 79.94C93.3964 80.18 93.6064 80.3 93.9064 80.3C94.2064 80.3 94.4164 80.18 94.5364 79.94C94.6564 79.7 94.7164 79.346 94.7164 78.878V76.664H93.8884V74H97.6684V83H96.4264L95.9044 81.704C95.3524 82.664 94.5004 83.144 93.3484 83.144ZM101.239 83.144C100.219 83.144 99.5167 82.808 99.1327 82.136C98.7607 81.452 98.5747 80.48 98.5747 79.22C98.5747 78.188 98.7067 77.396 98.9707 76.844C99.2467 76.292 99.6247 75.89 100.105 75.638C100.585 75.374 101.317 75.086 102.301 74.774L103.165 74.486V74.45V73.136C103.165 72.788 103.093 72.524 102.949 72.344C102.817 72.152 102.655 72.056 102.463 72.056C102.295 72.056 102.145 72.134 102.013 72.29C101.893 72.446 101.833 72.656 101.833 72.92V73.712H98.7727V73.28C98.7727 71.984 99.0727 71.06 99.6727 70.508C100.285 69.956 101.275 69.68 102.643 69.68C103.735 69.68 104.623 69.968 105.307 70.544C105.991 71.108 106.333 71.912 106.333 72.956V83H103.201V81.434C103.045 81.974 102.793 82.394 102.445 82.694C102.109 82.994 101.707 83.144 101.239 83.144ZM102.481 80.696C102.721 80.696 102.889 80.6 102.985 80.408C103.093 80.204 103.147 79.958 103.147 79.67V75.998C102.679 76.178 102.331 76.406 102.103 76.682C101.887 76.958 101.779 77.342 101.779 77.834V79.526C101.779 80.306 102.013 80.696 102.481 80.696ZM107.546 69.824H110.696V71.282C110.852 70.766 111.122 70.37 111.506 70.094C111.902 69.806 112.388 69.662 112.964 69.662V72.29C112.52 72.29 112.028 72.356 111.488 72.488C110.96 72.608 110.696 72.752 110.696 72.92V83H107.546V69.824ZM116.127 83.144C115.107 83.144 114.405 82.808 114.021 82.136C113.649 81.452 113.463 80.48 113.463 79.22C113.463 78.188 113.595 77.396 113.859 76.844C114.135 76.292 114.513 75.89 114.993 75.638C115.473 75.374 116.205 75.086 117.189 74.774L118.053 74.486V74.45V73.136C118.053 72.788 117.981 72.524 117.837 72.344C117.705 72.152 117.543 72.056 117.351 72.056C117.183 72.056 117.033 72.134 116.901 72.29C116.781 72.446 116.721 72.656 116.721 72.92V73.712H113.661V73.28C113.661 71.984 113.961 71.06 114.561 70.508C115.173 69.956 116.163 69.68 117.531 69.68C118.623 69.68 119.511 69.968 120.195 70.544C120.879 71.108 121.221 71.912 121.221 72.956V83H118.089V81.434C117.933 81.974 117.681 82.394 117.333 82.694C116.997 82.994 116.595 83.144 116.127 83.144ZM117.369 80.696C117.609 80.696 117.777 80.6 117.873 80.408C117.981 80.204 118.035 79.958 118.035 79.67V75.998C117.567 76.178 117.219 76.406 116.991 76.682C116.775 76.958 116.667 77.342 116.667 77.834V79.526C116.667 80.306 116.901 80.696 117.369 80.696ZM122.435 69.824H125.585V71.498C125.717 70.958 125.945 70.52 126.269 70.184C126.593 69.848 127.025 69.68 127.565 69.68C128.453 69.68 129.107 69.956 129.527 70.508C129.959 71.048 130.175 71.822 130.175 72.83V83H127.079V73.154C127.079 72.866 127.019 72.62 126.899 72.416C126.791 72.212 126.617 72.11 126.377 72.11C126.053 72.11 125.837 72.26 125.729 72.56C125.633 72.848 125.585 73.238 125.585 73.73V83H122.435V69.824ZM134.135 83.144C133.307 83.144 132.737 82.97 132.425 82.622C132.113 82.274 131.957 81.716 131.957 80.948V72.722H131.075V70.328H131.957V67.538H135.017V70.328H135.917V72.722H135.017V80.12C135.017 80.348 135.035 80.516 135.071 80.624C135.107 80.732 135.203 80.786 135.359 80.786C135.479 80.786 135.593 80.78 135.701 80.768C135.809 80.756 135.881 80.75 135.917 80.75V82.91C135.737 82.958 135.473 83.006 135.125 83.054C134.789 83.114 134.459 83.144 134.135 83.144ZM136.883 68.942V66.746H140.033V68.942H136.883ZM136.883 83V69.824H140.033V83H136.883ZM141.278 69.824H144.428V71.498C144.56 70.958 144.788 70.52 145.112 70.184C145.436 69.848 145.868 69.68 146.408 69.68C147.296 69.68 147.95 69.956 148.37 70.508C148.802 71.048 149.018 71.822 149.018 72.83V83H145.922V73.154C145.922 72.866 145.862 72.62 145.742 72.416C145.634 72.212 145.46 72.11 145.22 72.11C144.896 72.11 144.68 72.26 144.572 72.56C144.476 72.848 144.428 73.238 144.428 73.73V83H141.278V69.824ZM152.853 83.144C152.085 83.144 151.503 82.964 151.107 82.604C150.723 82.232 150.465 81.746 150.333 81.146C150.213 80.534 150.153 79.754 150.153 78.806L150.189 72.866C150.189 71.93 150.423 71.168 150.891 70.58C151.371 69.98 152.043 69.68 152.907 69.68C153.759 69.68 154.395 69.962 154.815 70.526V67.448H157.965V83H154.815V81.596C154.635 82.112 154.389 82.502 154.077 82.766C153.777 83.018 153.369 83.144 152.853 83.144ZM154.059 80.678C154.371 80.678 154.575 80.528 154.671 80.228C154.767 79.916 154.815 79.502 154.815 78.986V78.428V73.478C154.815 73.094 154.761 72.77 154.653 72.506C154.545 72.242 154.353 72.11 154.077 72.11C153.765 72.11 153.555 72.236 153.447 72.488C153.351 72.728 153.303 73.058 153.303 73.478V79.022C153.303 80.126 153.555 80.678 154.059 80.678ZM163.06 83.144C160.432 83.144 159.118 81.782 159.118 79.058V73.766C159.118 72.518 159.466 71.528 160.162 70.796C160.87 70.052 161.836 69.68 163.06 69.68C164.284 69.68 165.244 70.052 165.94 70.796C166.648 71.528 167.002 72.518 167.002 73.766V79.058C167.002 81.782 165.688 83.144 163.06 83.144ZM163.06 80.714C163.312 80.714 163.498 80.624 163.618 80.444C163.738 80.264 163.798 80.018 163.798 79.706V73.262C163.798 72.494 163.552 72.11 163.06 72.11C162.568 72.11 162.322 72.494 162.322 73.262V79.706C162.322 80.018 162.382 80.264 162.502 80.444C162.622 80.624 162.808 80.714 163.06 80.714ZM174.93 83.144C173.946 83.144 173.268 82.85 172.896 82.262C172.536 81.674 172.356 80.798 172.356 79.634V69.824H175.524V79.004C175.524 79.088 175.524 79.316 175.524 79.688C175.524 80.048 175.578 80.306 175.686 80.462C175.806 80.606 175.986 80.678 176.226 80.678C176.55 80.678 176.754 80.546 176.838 80.282C176.922 80.006 176.964 79.616 176.964 79.112V79.004L176.982 69.824H180.114V83H176.964V81.596C176.748 82.148 176.496 82.544 176.208 82.784C175.92 83.024 175.494 83.144 174.93 83.144ZM181.374 69.824H184.452V71.354C184.596 70.79 184.842 70.37 185.19 70.094C185.538 69.818 186.03 69.68 186.666 69.68C187.182 69.68 187.626 69.8 187.998 70.04C188.382 70.268 188.652 70.586 188.808 70.994C189.072 70.538 189.366 70.208 189.69 70.004C190.014 69.788 190.464 69.68 191.04 69.68C192.072 69.68 192.786 69.998 193.182 70.634C193.59 71.258 193.794 72.17 193.794 73.37L193.758 83H190.59V73.316C190.59 72.464 190.374 72.038 189.942 72.038C189.642 72.038 189.426 72.188 189.294 72.488C189.162 72.776 189.096 73.124 189.096 73.532V83H185.946V73.316C185.946 72.944 185.904 72.644 185.82 72.416C185.748 72.188 185.586 72.074 185.334 72.074C185.01 72.074 184.782 72.236 184.65 72.56C184.518 72.872 184.452 73.25 184.452 73.694V83H181.374V69.824ZM197.409 83.144C196.389 83.144 195.687 82.808 195.303 82.136C194.931 81.452 194.745 80.48 194.745 79.22C194.745 78.188 194.877 77.396 195.141 76.844C195.417 76.292 195.795 75.89 196.275 75.638C196.755 75.374 197.487 75.086 198.471 74.774L199.335 74.486V74.45V73.136C199.335 72.788 199.263 72.524 199.119 72.344C198.987 72.152 198.825 72.056 198.633 72.056C198.465 72.056 198.315 72.134 198.183 72.29C198.063 72.446 198.003 72.656 198.003 72.92V73.712H194.943V73.28C194.943 71.984 195.243 71.06 195.843 70.508C196.455 69.956 197.445 69.68 198.813 69.68C199.905 69.68 200.793 69.968 201.477 70.544C202.161 71.108 202.503 71.912 202.503 72.956V83H199.371V81.434C199.215 81.974 198.963 82.394 198.615 82.694C198.279 82.994 197.877 83.144 197.409 83.144ZM198.651 80.696C198.891 80.696 199.059 80.6 199.155 80.408C199.263 80.204 199.317 79.958 199.317 79.67V75.998C198.849 76.178 198.501 76.406 198.273 76.682C198.057 76.958 197.949 77.342 197.949 77.834V79.526C197.949 80.306 198.183 80.696 198.651 80.696ZM209.609 83L207.503 69.824H210.653L211.301 76.484L211.409 78.626L211.535 76.466L212.255 69.824H215.405L213.263 83H209.609ZM218.625 83.144C217.605 83.144 216.903 82.808 216.519 82.136C216.147 81.452 215.961 80.48 215.961 79.22C215.961 78.188 216.093 77.396 216.357 76.844C216.633 76.292 217.011 75.89 217.491 75.638C217.971 75.374 218.703 75.086 219.687 74.774L220.551 74.486V74.45V73.136C220.551 72.788 220.479 72.524 220.335 72.344C220.203 72.152 220.041 72.056 219.849 72.056C219.681 72.056 219.531 72.134 219.399 72.29C219.279 72.446 219.219 72.656 219.219 72.92V73.712H216.159V73.28C216.159 71.984 216.459 71.06 217.059 70.508C217.671 69.956 218.661 69.68 220.029 69.68C221.121 69.68 222.009 69.968 222.693 70.544C223.377 71.108 223.719 71.912 223.719 72.956V83H220.587V81.434C220.431 81.974 220.179 82.394 219.831 82.694C219.495 82.994 219.093 83.144 218.625 83.144ZM219.867 80.696C220.107 80.696 220.275 80.6 220.371 80.408C220.479 80.204 220.533 79.958 220.533 79.67V75.998C220.065 76.178 219.717 76.406 219.489 76.682C219.273 76.958 219.165 77.342 219.165 77.834V79.526C219.165 80.306 219.399 80.696 219.867 80.696ZM228.479 84.926C227.543 84.926 226.805 84.848 226.265 84.692C225.737 84.548 225.215 84.266 224.699 83.846L225.779 82.028C226.547 82.484 227.309 82.712 228.065 82.712C228.557 82.712 228.929 82.556 229.181 82.244C229.433 81.932 229.559 81.506 229.559 80.966V80.246C229.307 81.146 228.641 81.596 227.561 81.596C226.661 81.596 225.995 81.29 225.563 80.678C225.143 80.066 224.933 79.25 224.933 78.23V73.28C224.933 72.116 225.125 71.228 225.509 70.616C225.905 69.992 226.589 69.68 227.561 69.68C228.125 69.68 228.569 69.824 228.893 70.112C229.229 70.388 229.451 70.784 229.559 71.3V69.824H232.781V80.768C232.781 82.244 232.439 83.306 231.755 83.954C231.071 84.602 229.979 84.926 228.479 84.926ZM228.821 79.22C229.313 79.22 229.559 78.776 229.559 77.888V73.19C229.559 72.926 229.487 72.674 229.343 72.434C229.199 72.194 229.019 72.074 228.803 72.074C228.527 72.074 228.341 72.176 228.245 72.38C228.149 72.572 228.101 72.842 228.101 73.19V77.888C228.101 78.284 228.149 78.608 228.245 78.86C228.341 79.1 228.533 79.22 228.821 79.22ZM236.397 83.144C235.377 83.144 234.675 82.808 234.291 82.136C233.919 81.452 233.733 80.48 233.733 79.22C233.733 78.188 233.865 77.396 234.129 76.844C234.405 76.292 234.783 75.89 235.263 75.638C235.743 75.374 236.475 75.086 237.459 74.774L238.323 74.486V74.45V73.136C238.323 72.788 238.251 72.524 238.107 72.344C237.975 72.152 237.813 72.056 237.621 72.056C237.453 72.056 237.303 72.134 237.171 72.29C237.051 72.446 236.991 72.656 236.991 72.92V73.712H233.931V73.28C233.931 71.984 234.231 71.06 234.831 70.508C235.443 69.956 236.433 69.68 237.801 69.68C238.893 69.68 239.781 69.968 240.465 70.544C241.149 71.108 241.491 71.912 241.491 72.956V83H238.359V81.434C238.203 81.974 237.951 82.394 237.603 82.694C237.267 82.994 236.865 83.144 236.397 83.144ZM237.639 80.696C237.879 80.696 238.047 80.6 238.143 80.408C238.251 80.204 238.305 79.958 238.305 79.67V75.998C237.837 76.178 237.489 76.406 237.261 76.682C237.045 76.958 236.937 77.342 236.937 77.834V79.526C236.937 80.306 237.171 80.696 237.639 80.696ZM246.923 69.824H250.073V71.498C250.205 70.958 250.433 70.52 250.757 70.184C251.081 69.848 251.513 69.68 252.053 69.68C252.941 69.68 253.595 69.956 254.015 70.508C254.447 71.048 254.663 71.822 254.663 72.83V83H251.567V73.154C251.567 72.866 251.507 72.62 251.387 72.416C251.279 72.212 251.105 72.11 250.865 72.11C250.541 72.11 250.325 72.26 250.217 72.56C250.121 72.848 250.073 73.238 250.073 73.73V83H246.923V69.824ZM258.299 83.144C257.279 83.144 256.577 82.808 256.193 82.136C255.821 81.452 255.635 80.48 255.635 79.22C255.635 78.188 255.767 77.396 256.031 76.844C256.307 76.292 256.685 75.89 257.165 75.638C257.645 75.374 258.377 75.086 259.361 74.774L260.225 74.486V74.45V73.136C260.225 72.788 260.153 72.524 260.009 72.344C259.877 72.152 259.715 72.056 259.523 72.056C259.355 72.056 259.205 72.134 259.073 72.29C258.953 72.446 258.893 72.656 258.893 72.92V73.712H255.833V73.28C255.833 71.984 256.133 71.06 256.733 70.508C257.345 69.956 258.335 69.68 259.703 69.68C260.795 69.68 261.683 69.968 262.367 70.544C263.051 71.108 263.393 71.912 263.393 72.956V83H260.261V81.434C260.105 81.974 259.853 82.394 259.505 82.694C259.169 82.994 258.767 83.144 258.299 83.144ZM259.541 80.696C259.781 80.696 259.949 80.6 260.045 80.408C260.153 80.204 260.207 79.958 260.207 79.67V75.998C259.739 76.178 259.391 76.406 259.163 76.682C258.947 76.958 258.839 77.342 258.839 77.834V79.526C258.839 80.306 259.073 80.696 259.541 80.696ZM272.065 83.144C270.949 83.144 270.115 82.754 269.563 81.974C269.023 81.182 268.753 79.988 268.753 78.392V71.732C268.753 70.304 269.071 69.224 269.707 68.492C270.343 67.76 271.291 67.394 272.551 67.394C273.571 67.394 274.363 67.598 274.927 68.006C275.491 68.414 275.881 69.008 276.097 69.788C276.313 70.568 276.421 71.57 276.421 72.794H273.397V71.408C273.397 71.036 273.343 70.748 273.235 70.544C273.139 70.34 272.959 70.238 272.695 70.238C272.107 70.238 271.813 70.622 271.813 71.39V78.878C271.813 79.346 271.873 79.7 271.993 79.94C272.113 80.18 272.323 80.3 272.623 80.3C272.923 80.3 273.133 80.18 273.253 79.94C273.373 79.7 273.433 79.346 273.433 78.878V76.664H272.605V74H276.385V83H275.143L274.621 81.704C274.069 82.664 273.217 83.144 272.065 83.144ZM277.562 69.824H280.712V71.282C280.868 70.766 281.138 70.37 281.522 70.094C281.918 69.806 282.404 69.662 282.98 69.662V72.29C282.536 72.29 282.044 72.356 281.504 72.488C280.976 72.608 280.712 72.752 280.712 72.92V83H277.562V69.824ZM287.583 83.144C284.955 83.144 283.641 81.782 283.641 79.058V73.766C283.641 72.518 283.989 71.528 284.685 70.796C285.393 70.052 286.359 69.68 287.583 69.68C288.807 69.68 289.767 70.052 290.463 70.796C291.171 71.528 291.525 72.518 291.525 73.766V79.058C291.525 81.782 290.211 83.144 287.583 83.144ZM287.583 80.714C287.835 80.714 288.021 80.624 288.141 80.444C288.261 80.264 288.321 80.018 288.321 79.706V73.262C288.321 72.494 288.075 72.11 287.583 72.11C287.091 72.11 286.845 72.494 286.845 73.262V79.706C286.845 80.018 286.905 80.264 287.025 80.444C287.145 80.624 287.331 80.714 287.583 80.714ZM294.082 83L292.48 69.824H295.18L296.062 76.898L296.818 69.824H299.572L300.472 76.898L301.21 69.824H304.18L302.488 83H299.338L298.402 75.512L297.574 83H294.082ZM307.947 83.144C307.119 83.144 306.549 82.97 306.237 82.622C305.925 82.274 305.769 81.716 305.769 80.948V72.722H304.887V70.328H305.769V67.538H308.829V70.328H309.729V72.722H308.829V80.12C308.829 80.348 308.847 80.516 308.883 80.624C308.919 80.732 309.015 80.786 309.171 80.786C309.291 80.786 309.405 80.78 309.513 80.768C309.621 80.756 309.693 80.75 309.729 80.75V82.91C309.549 82.958 309.285 83.006 308.937 83.054C308.601 83.114 308.271 83.144 307.947 83.144ZM310.714 67.448H313.954V71.12C314.29 70.16 314.932 69.68 315.88 69.68C316.768 69.68 317.44 69.962 317.896 70.526C318.352 71.09 318.58 71.864 318.58 72.848V83H315.43V73.046C315.43 72.758 315.364 72.524 315.232 72.344C315.1 72.164 314.908 72.074 314.656 72.074C314.44 72.074 314.266 72.17 314.134 72.362C314.014 72.542 313.954 72.764 313.954 73.028V83H310.714V67.448ZM321.188 83V70.508H319.352V67.538H326.12V70.508H324.284V83H321.188ZM330.628 83.144C329.272 83.144 328.3 82.772 327.712 82.028C327.124 81.284 326.83 80.174 326.83 78.698V73.406C326.83 72.194 327.178 71.27 327.874 70.634C328.57 69.998 329.542 69.68 330.79 69.68C333.322 69.68 334.588 70.922 334.588 73.406V74.36C334.588 75.32 334.576 76.1 334.552 76.7H329.98V79.256C329.98 79.712 330.028 80.072 330.124 80.336C330.22 80.588 330.424 80.714 330.736 80.714C330.976 80.714 331.144 80.642 331.24 80.498C331.348 80.354 331.408 80.192 331.42 80.012C331.444 79.82 331.456 79.544 331.456 79.184V77.906H334.588V78.662C334.588 80.198 334.288 81.332 333.688 82.064C333.1 82.784 332.08 83.144 330.628 83.144ZM331.456 75.134V73.442C331.456 72.494 331.222 72.02 330.754 72.02C330.226 72.02 329.962 72.494 329.962 73.442V75.134H331.456ZM339.688 83.144C338.248 83.144 337.21 82.778 336.574 82.046C335.938 81.314 335.62 80.192 335.62 78.68V74.612C335.62 73.472 335.74 72.548 335.98 71.84C336.232 71.12 336.646 70.58 337.222 70.22C337.81 69.86 338.62 69.68 339.652 69.68C340.78 69.68 341.698 69.974 342.406 70.562C343.114 71.15 343.468 71.972 343.468 73.028V75.044H340.264V73.19C340.264 72.842 340.216 72.578 340.12 72.398C340.024 72.206 339.838 72.11 339.562 72.11C339.046 72.11 338.788 72.476 338.788 73.208V79.598C338.788 79.898 338.848 80.156 338.968 80.372C339.1 80.576 339.292 80.678 339.544 80.678C339.796 80.678 339.982 80.576 340.102 80.372C340.234 80.168 340.294 79.904 340.282 79.58L340.264 77.366H343.468V79.67C343.468 80.75 343.114 81.602 342.406 82.226C341.71 82.838 340.804 83.144 339.688 83.144ZM344.569 67.448H347.809V71.12C348.145 70.16 348.787 69.68 349.735 69.68C350.623 69.68 351.295 69.962 351.751 70.526C352.207 71.09 352.435 71.864 352.435 72.848V83H349.285V73.046C349.285 72.758 349.219 72.524 349.087 72.344C348.955 72.164 348.763 72.074 348.511 72.074C348.295 72.074 348.121 72.17 347.989 72.362C347.869 72.542 347.809 72.764 347.809 73.028V83H344.569V67.448Z" fill="#001E63"/>
<path d="M89.825 63L94.39 15.755H110.395L114.905 63H105.94L105.28 55.355H99.56L99.01 63H89.825ZM100.275 47.82H104.565L102.475 23.785H102.035L100.275 47.82ZM117.784 15.755H130.269C134.046 15.755 136.741 16.9833 138.354 19.44C139.968 21.86 140.774 25.4167 140.774 30.11C140.774 34.8033 140.059 38.3417 138.629 40.725C137.199 43.1083 134.633 44.3 130.929 44.3H127.079V63H117.784V15.755ZM127.629 35.775C128.766 35.775 129.591 35.5733 130.104 35.17C130.654 34.73 131.003 34.125 131.149 33.355C131.333 32.5483 131.424 31.4117 131.424 29.945C131.424 27.965 131.204 26.535 130.764 25.655C130.324 24.775 129.444 24.335 128.124 24.335H127.079V35.775H127.629ZM143.287 63V15.755H152.417V63H143.287ZM180.298 63.44C176.008 63.44 172.91 62.3767 171.003 60.25C169.097 58.1233 168.143 54.695 168.143 49.965V45.345H177.438V51.23C177.438 53.5767 178.19 54.75 179.693 54.75C180.537 54.75 181.123 54.5117 181.453 54.035C181.783 53.5217 181.948 52.6783 181.948 51.505C181.948 49.965 181.765 48.7 181.398 47.71C181.032 46.6833 180.555 45.84 179.968 45.18C179.418 44.4833 178.41 43.42 176.943 41.99L172.873 37.92C169.72 34.84 168.143 31.43 168.143 27.69C168.143 23.6567 169.06 20.595 170.893 18.505C172.763 16.3783 175.477 15.315 179.033 15.315C183.287 15.315 186.348 16.4517 188.218 18.725C190.088 20.9617 191.023 24.4817 191.023 29.285H181.398L181.343 26.04C181.343 25.4167 181.16 24.9217 180.793 24.555C180.463 24.1883 179.987 24.005 179.363 24.005C178.63 24.005 178.08 24.2067 177.713 24.61C177.347 25.0133 177.163 25.5633 177.163 26.26C177.163 27.8 178.043 29.395 179.803 31.045L185.303 36.325C186.587 37.5717 187.65 38.7633 188.493 39.9C189.337 41 190.015 42.32 190.528 43.86C191.042 45.3633 191.298 47.16 191.298 49.25C191.298 53.9067 190.437 57.445 188.713 59.865C187.027 62.2483 184.222 63.44 180.298 63.44ZM193.99 63V15.755H203.12V63H193.99ZM206.891 63V15.755H221.301L225.261 44.575L229.221 15.755H243.741V63H235.106V28.955L229.661 63H221.191L215.416 28.955V63H206.891ZM247.926 15.755H260.411C264.188 15.755 266.883 16.9833 268.496 19.44C270.109 21.86 270.916 25.4167 270.916 30.11C270.916 34.8033 270.201 38.3417 268.771 40.725C267.341 43.1083 264.774 44.3 261.071 44.3H257.221V63H247.926V15.755ZM257.771 35.775C258.908 35.775 259.733 35.5733 260.246 35.17C260.796 34.73 261.144 34.125 261.291 33.355C261.474 32.5483 261.566 31.4117 261.566 29.945C261.566 27.965 261.346 26.535 260.906 25.655C260.466 24.775 259.586 24.335 258.266 24.335H257.221V35.775H257.771ZM273.868 63V15.755H283.328V54.97H293.063V63H273.868ZM295.729 63V15.755H314.649V24.885H305.354V34.07H314.264V42.98H305.354V53.815H315.254V63H295.729ZM329.615 63.44C325.325 63.44 322.226 62.3767 320.32 60.25C318.413 58.1233 317.46 54.695 317.46 49.965V45.345H326.755V51.23C326.755 53.5767 327.506 54.75 329.01 54.75C329.853 54.75 330.44 54.5117 330.77 54.035C331.1 53.5217 331.265 52.6783 331.265 51.505C331.265 49.965 331.081 48.7 330.715 47.71C330.348 46.6833 329.871 45.84 329.285 45.18C328.735 44.4833 327.726 43.42 326.26 41.99L322.19 37.92C319.036 34.84 317.46 31.43 317.46 27.69C317.46 23.6567 318.376 20.595 320.21 18.505C322.08 16.3783 324.793 15.315 328.35 15.315C332.603 15.315 335.665 16.4517 337.535 18.725C339.405 20.9617 340.34 24.4817 340.34 29.285H330.715L330.66 26.04C330.66 25.4167 330.476 24.9217 330.11 24.555C329.78 24.1883 329.303 24.005 328.68 24.005C327.946 24.005 327.396 24.2067 327.03 24.61C326.663 25.0133 326.48 25.5633 326.48 26.26C326.48 27.8 327.36 29.395 329.12 31.045L334.62 36.325C335.903 37.5717 336.966 38.7633 337.81 39.9C338.653 41 339.331 42.32 339.845 43.86C340.358 45.3633 340.615 47.16 340.615 49.25C340.615 53.9067 339.753 57.445 338.03 59.865C336.343 62.2483 333.538 63.44 329.615 63.44Z" fill="#001E63"/>
</svg>
