<svg width="296" height="48" viewBox="0 0 296 48" fill="none" xmlns="http://www.w3.org/2000/svg">
<path d="M22.5514 16.7114L15.9008 18.873C15.785 18.9105 15.6849 18.985 15.6158 19.0849C15.5466 19.1848 15.5124 19.3046 15.5184 19.4259V22.5108C15.5605 24.0821 15.9547 25.6241 16.672 27.0236C17.3893 28.4232 18.4116 29.6448 19.6639 30.5989L22.6511 32.5394C22.7469 32.6062 22.8613 32.641 22.9781 32.639C23.099 32.6395 23.217 32.6028 23.3162 32.5339L26.0873 30.5658C27.2964 29.6002 28.2702 28.3737 28.9354 26.9785C29.6007 25.5833 29.94 24.0557 29.928 22.5108V19.3982C29.934 19.277 29.8997 19.1572 29.8306 19.0572C29.7615 18.9573 29.6613 18.8829 29.5456 18.8454L22.895 16.6838C22.7804 16.6563 22.6601 16.666 22.5514 16.7114ZM28.8196 22.5108C28.8359 23.8861 28.5398 25.2472 27.9533 26.4919C27.3668 27.7367 26.5052 28.8328 25.4333 29.6978L22.967 31.4393L20.3068 29.7144C19.1947 28.8625 18.2872 27.7737 17.6506 26.5275C17.0139 25.2813 16.6642 23.909 16.6268 22.5108V19.8018L22.7232 17.8171L28.8196 19.8018V22.5108Z" fill="#00277E"/>
<path d="M20.9551 23.5224L19.9686 24.512L22.6455 27.1823L23.632 26.1927L26.6913 23.141L25.6992 22.1514L22.6455 25.2031L20.9551 23.5224Z" fill="#00277E"/>
<path d="M2.7711 17.4798V23.8873C2.7711 25.4131 4.18436 26.3253 5.54219 26.3253H7.20484C7.35183 26.3253 7.4928 26.2671 7.59673 26.1634C7.70067 26.0597 7.75906 25.9191 7.75906 25.7725C7.75906 25.6259 7.70067 25.4853 7.59673 25.3816C7.4928 25.2779 7.35183 25.2196 7.20484 25.2196H5.54219C4.71641 25.2196 3.87954 24.7221 3.87954 23.8873V17.4798H8.86749V21.3497C8.86749 21.4963 8.92588 21.637 9.02982 21.7406C9.13375 21.8443 9.27472 21.9026 9.42171 21.9026C9.5687 21.9026 9.70966 21.8443 9.8136 21.7406C9.91754 21.637 9.97593 21.4963 9.97593 21.3497V17.4798H12.5697C13.3222 17.4825 14.0473 17.1974 14.5957 16.6833C15.1441 16.1692 15.4742 15.465 15.5181 14.7155H22.2685C23.593 14.7155 24.3856 13.7425 24.3856 12.1116V10.2927C24.3856 10.1461 24.3272 10.0055 24.2232 9.90181C24.1193 9.79813 23.9783 9.73988 23.8314 9.73988C23.6844 9.73988 23.5434 9.79813 23.4395 9.90181C23.3355 10.0055 23.2771 10.1461 23.2771 10.2927V12.1116C23.2771 13.6098 22.5456 13.6098 22.2685 13.6098H15.5181V8.63419H19.3976C19.5446 8.63419 19.6856 8.57594 19.7895 8.47226C19.8934 8.36858 19.9518 8.22796 19.9518 8.08134C19.9518 7.93471 19.8934 7.79409 19.7895 7.69041C19.6856 7.58673 19.5446 7.52849 19.3976 7.52849H15.5181V4.94116C15.5166 4.16156 15.2055 3.41432 14.6529 2.86306C14.1003 2.3118 13.3512 2.00146 12.5697 2H2.94845C2.16693 2.00146 1.41784 2.3118 0.865214 2.86306C0.312592 3.41432 0.00148387 4.16156 1.89711e-05 4.94116V14.5386C-0.00268166 15.2893 0.283046 16.0126 0.798459 16.5596C1.31387 17.1067 2.0198 17.4359 2.7711 17.4798ZM1.10845 4.94116C1.10992 4.45481 1.30424 3.9888 1.64899 3.6449C1.99374 3.301 2.4609 3.10716 2.94845 3.1057H12.5697C13.0572 3.10716 13.5244 3.301 13.8691 3.6449C14.2139 3.9888 14.4082 4.45481 14.4097 4.94116V14.5386C14.4082 15.025 14.2139 15.491 13.8691 15.8349C13.5244 16.1788 13.0572 16.3726 12.5697 16.3741H2.94845C2.4609 16.3726 1.99374 16.1788 1.64899 15.8349C1.30424 15.491 1.10992 15.025 1.10845 14.5386V4.94116Z" fill="#00277E"/>
<path d="M43.0515 2.00002H33.4303C32.6777 1.99732 31.9527 2.28235 31.4043 2.79649C30.8559 3.31063 30.5258 4.01481 30.4819 4.76426H23.9477C22.5289 4.76426 21.0602 5.65988 21.0602 7.1581V9.18705C21.0602 9.33368 21.1186 9.4743 21.2225 9.57797C21.3264 9.68165 21.4674 9.7399 21.6144 9.7399C21.7614 9.7399 21.9024 9.68165 22.0063 9.57797C22.1102 9.4743 22.1686 9.33368 22.1686 9.18705V7.1581C22.1686 6.36199 23.0942 5.86996 23.9477 5.86996H30.4819V10.8456H26.0481C25.9011 10.8456 25.7602 10.9038 25.6562 11.0075C25.5523 11.1112 25.4939 11.2518 25.4939 11.3984C25.4939 11.5451 25.5523 11.6857 25.6562 11.7894C25.7602 11.893 25.9011 11.9513 26.0481 11.9513H30.4819V14.5386C30.4823 15.1913 30.7004 15.8253 31.1017 16.3407C31.5031 16.8562 32.0649 17.2239 32.6987 17.3858C32.6961 17.4171 32.6961 17.4485 32.6987 17.4798V23.9481C32.6987 25.4187 34.2506 26.3254 35.6915 26.3254H37.1325C37.2795 26.3254 37.4204 26.2671 37.5244 26.1634C37.6283 26.0598 37.6867 25.9191 37.6867 25.7725C37.6867 25.6259 37.6283 25.4853 37.5244 25.3816C37.4204 25.2779 37.2795 25.2197 37.1325 25.2197H35.6915C34.7826 25.2197 33.8072 24.7055 33.8072 23.9481V17.4798H38.7951V21.3497C38.7951 21.4963 38.8535 21.637 38.9575 21.7406C39.0614 21.8443 39.2024 21.9026 39.3494 21.9026C39.4963 21.9026 39.6373 21.8443 39.7412 21.7406C39.8452 21.637 39.9036 21.4963 39.9036 21.3497V17.4798H43.0515C43.833 17.4783 44.5821 17.168 45.1348 16.6167C45.6874 16.0655 45.9985 15.3182 46 14.5386V4.94117C45.9985 4.16158 45.6874 3.41433 45.1348 2.86308C44.5821 2.31182 43.833 2.00148 43.0515 2.00002V2.00002ZM44.8915 14.5386C44.8901 15.025 44.6957 15.491 44.351 15.8349C44.0062 16.1788 43.5391 16.3726 43.0515 16.3741H33.4303C32.9428 16.3726 32.4756 16.1788 32.1308 15.8349C31.7861 15.491 31.5918 15.025 31.5903 14.5386V4.94117C31.5918 4.45483 31.7861 3.98882 32.1308 3.64492C32.4756 3.30102 32.9428 3.10717 33.4303 3.10572H43.0515C43.5391 3.10717 44.0062 3.30102 44.351 3.64492C44.6957 3.98882 44.8901 4.45483 44.8915 4.94117V14.5386Z" fill="#00277E"/>
<path d="M43.2289 32.4067V25.6233C43.2363 25.282 43.1752 24.9428 43.0492 24.6255C42.9232 24.3081 42.7349 24.0191 42.4952 23.7755C42.2556 23.5318 41.9696 23.3384 41.654 23.2067C41.3383 23.0749 40.9995 23.0075 40.6573 23.0083H38.2409C38.0939 23.0083 37.953 23.0666 37.849 23.1702C37.7451 23.2739 37.6867 23.4145 37.6867 23.5612C37.6867 23.7078 37.7451 23.8484 37.849 23.9521C37.953 24.0558 38.0939 24.114 38.2409 24.114H40.6573C40.8539 24.1131 41.0487 24.1519 41.2299 24.2281C41.4111 24.3043 41.575 24.4162 41.7117 24.5572C41.8484 24.6982 41.9551 24.8654 42.0253 25.0486C42.0956 25.2318 42.1279 25.4273 42.1204 25.6233V32.4067H37.1325V27.9839C37.1325 27.8373 37.0741 27.6967 36.9702 27.593C36.8662 27.4893 36.7253 27.4311 36.5783 27.4311C36.4313 27.4311 36.2903 27.4893 36.1864 27.593C36.0824 27.6967 36.024 27.8373 36.024 27.9839V32.4067H33.4303C32.776 32.4072 32.1405 32.6247 31.6237 33.0251C31.107 33.4254 30.7384 33.9859 30.5761 34.6181C30.5447 34.6155 30.5132 34.6155 30.4819 34.6181H23.9477C23.2112 34.6249 22.5046 34.9089 21.9691 35.4132C21.4337 35.9176 21.1091 36.6051 21.0602 37.3381V39.0409C21.0602 39.1875 21.1186 39.3282 21.2225 39.4318C21.3264 39.5355 21.4674 39.5938 21.6144 39.5938C21.7614 39.5938 21.9024 39.5355 22.0063 39.4318C22.1102 39.3282 22.1686 39.1875 22.1686 39.0409V37.3381C22.2228 36.9014 22.432 36.4984 22.7583 36.2022C23.0847 35.9061 23.5066 35.7364 23.9477 35.7238H30.4819V40.6995H26.0481C25.9011 40.6995 25.7602 40.7577 25.6562 40.8614C25.5523 40.9651 25.4939 41.1057 25.4939 41.2523C25.4939 41.3989 25.5523 41.5396 25.6562 41.6432C25.7602 41.7469 25.9011 41.8052 26.0481 41.8052H30.4819V44.9453C30.4833 45.7249 30.7944 46.4722 31.3471 47.0234C31.8997 47.5747 32.6488 47.885 33.4303 47.8865H43.0515C43.833 47.885 44.5821 47.5747 45.1348 47.0234C45.6874 46.4722 45.9985 45.7249 46 44.9453V35.3479C46.0027 34.5972 45.7169 33.8739 45.2015 33.3269C44.6861 32.7798 43.9802 32.4506 43.2289 32.4067V32.4067ZM44.8915 44.9288C44.893 45.171 44.8465 45.4111 44.7548 45.6354C44.663 45.8597 44.5278 46.0637 44.3569 46.2357C44.1859 46.4078 43.9826 46.5445 43.7586 46.638C43.5347 46.7316 43.2944 46.7801 43.0515 46.7808H33.4303C32.9428 46.7793 32.4756 46.5855 32.1308 46.2416C31.7861 45.8977 31.5918 45.4317 31.5903 44.9453V35.3479C31.5918 34.8615 31.7861 34.3955 32.1308 34.0516C32.4756 33.7077 32.9428 33.5139 33.4303 33.5124H43.0515C43.5391 33.5139 44.0062 33.7077 44.351 34.0516C44.6957 34.3955 44.8901 34.8615 44.8915 35.3479V44.9288Z" fill="#00277E"/>
<path d="M23.8313 39.5938C23.6843 39.5938 23.5434 39.652 23.4394 39.7557C23.3355 39.8594 23.2771 40 23.2771 40.1466V42.2917C23.2771 42.8113 23.1774 44.0166 22.2684 44.0166H15.5181V39.0409H19.3976C19.5446 39.0409 19.6856 38.9827 19.7895 38.879C19.8934 38.7753 19.9518 38.6347 19.9518 38.4881C19.9518 38.3414 19.8934 38.2008 19.7895 38.0971C19.6856 37.9935 19.5446 37.9352 19.3976 37.9352H15.5181V35.3479C15.5208 34.5972 15.2351 33.8739 14.7196 33.3269C14.2042 32.7798 13.4983 32.4506 12.747 32.4067C12.747 32.4067 12.747 32.4067 12.747 32.4067V25.5625C12.747 23.9868 11.8935 23.0083 10.5301 23.0083H8.31326C8.16627 23.0083 8.0253 23.0665 7.92137 23.1702C7.81743 23.2739 7.75904 23.4145 7.75904 23.5611C7.75904 23.7078 7.81743 23.8484 7.92137 23.9521C8.0253 24.0558 8.16627 24.114 8.31326 24.114H10.5301C11.2728 24.114 11.6386 24.6005 11.6386 25.5625V32.4067H6.65061V27.9839C6.65061 27.8373 6.59222 27.6967 6.48828 27.593C6.38434 27.4893 6.24338 27.4311 6.09639 27.4311C5.9494 27.4311 5.80843 27.4893 5.7045 27.593C5.60056 27.6967 5.54217 27.8373 5.54217 27.9839V32.4067H2.94843C2.16691 32.4082 1.41782 32.7185 0.865195 33.2698C0.312573 33.821 0.0014649 34.5683 0 35.3479V44.9453C0.0014649 45.7249 0.312573 46.4722 0.865195 47.0234C1.41782 47.5747 2.16691 47.885 2.94843 47.8865H12.5696C13.3222 47.8892 14.0473 47.6042 14.5956 47.09C15.144 46.5759 15.4741 45.8717 15.5181 45.1223H22.2684C23.5764 45.1223 24.3856 44.0166 24.3856 42.2917V40.1466C24.3856 40 24.3272 39.8594 24.2232 39.7557C24.1193 39.652 23.9783 39.5938 23.8313 39.5938ZM14.4096 44.9453C14.4082 45.4317 14.2139 45.8977 13.8691 46.2416C13.5244 46.5855 13.0572 46.7793 12.5696 46.7808H2.94843C2.46089 46.7793 1.99372 46.5855 1.64897 46.2416C1.30422 45.8977 1.1099 45.4317 1.10843 44.9453V35.3479C1.1099 34.8615 1.30422 34.3955 1.64897 34.0516C1.99372 33.7077 2.46089 33.5139 2.94843 33.5124H12.5696C13.0572 33.5139 13.5244 33.7077 13.8691 34.0516C14.2139 34.3955 14.4082 34.8615 14.4096 35.3479V44.9453Z" fill="#00277E"/>
<path d="M38.0304 9.17596C39.3129 9.17596 40.3526 8.13886 40.3526 6.85953C40.3526 5.5802 39.3129 4.54309 38.0304 4.54309C36.7479 4.54309 35.7083 5.5802 35.7083 6.85953C35.7083 8.13886 36.7479 9.17596 38.0304 9.17596Z" fill="#00277E"/>
<path d="M39.7098 9.73999H36.3457C35.6638 9.77789 35.022 10.0733 34.5505 10.5662C34.0791 11.059 33.8134 11.7124 33.8074 12.3937V15.2685H42.1206V12.3937C42.1436 11.7255 41.9047 11.0746 41.4546 10.5792C41.0045 10.0837 40.3787 9.78273 39.7098 9.73999V9.73999Z" fill="#00277E"/>
<path d="M7.54849 9.17596C8.83099 9.17596 9.87066 8.13886 9.87066 6.85953C9.87066 5.5802 8.83099 4.54309 7.54849 4.54309C6.26599 4.54309 5.22632 5.5802 5.22632 6.85953C5.22632 8.13886 6.26599 9.17596 7.54849 9.17596Z" fill="#00277E"/>
<path d="M11.6386 12.3937C11.6616 11.7255 11.4227 11.0746 10.9726 10.5792C10.5225 10.0837 9.89662 9.78273 9.22773 9.73999H5.86363C5.18176 9.77789 4.53991 10.0733 4.06845 10.5662C3.597 11.059 3.3313 11.7124 3.32532 12.3937V15.2685H11.6386V12.3937Z" fill="#00277E"/>
<path d="M7.54849 39.5827C8.83099 39.5827 9.87066 38.5456 9.87066 37.2663C9.87066 35.9869 8.83099 34.9498 7.54849 34.9498C6.26599 34.9498 5.22632 35.9869 5.22632 37.2663C5.22632 38.5456 6.26599 39.5827 7.54849 39.5827Z" fill="#00277E"/>
<path d="M9.22773 40.1466H5.86363C5.18176 40.1845 4.53991 40.4799 4.06845 40.9728C3.597 41.4656 3.3313 42.1191 3.32532 42.8003V45.6751H11.6386V42.8003C11.6616 42.1321 11.4227 41.4812 10.9726 40.9858C10.5225 40.4904 9.89662 40.1893 9.22773 40.1466Z" fill="#00277E"/>
<path d="M38.5846 39.5827C39.8671 39.5827 40.9068 38.5456 40.9068 37.2663C40.9068 35.9869 39.8671 34.9498 38.5846 34.9498C37.3021 34.9498 36.2625 35.9869 36.2625 37.2663C36.2625 38.5456 37.3021 39.5827 38.5846 39.5827Z" fill="#00277E"/>
<path d="M40.2639 40.1466H36.8998C36.2179 40.1845 35.576 40.4799 35.1046 40.9728C34.6331 41.4656 34.3674 42.1191 34.3615 42.8003V45.6751H42.6747V42.8003C42.6977 42.1321 42.4588 41.4812 42.0087 40.9858C41.5586 40.4904 40.9327 40.1893 40.2639 40.1466V40.1466Z" fill="#00277E"/>
<path d="M51.7973 47L56.2091 1.34027H71.6771L76.0358 47H67.3716L66.7337 39.6115H61.2057L60.6741 47H51.7973ZM61.8967 32.3294H66.0427L64.0229 9.10083H63.5976L61.8967 32.3294ZM78.8185 1.34027H90.8846C94.5345 1.34027 97.1391 2.52739 98.6983 4.90162C100.257 7.24042 101.037 10.6777 101.037 15.2136C101.037 19.7495 100.346 23.1691 98.9641 25.4724C97.582 27.7758 95.1015 28.9275 91.5224 28.9275H87.8016V47H78.8185V1.34027ZM88.3332 20.6885C89.4317 20.6885 90.229 20.4936 90.7251 20.1038C91.2567 19.6786 91.5933 19.0939 91.735 18.3497C91.9122 17.5701 92.0008 16.4716 92.0008 15.0541C92.0008 13.1406 91.7882 11.7586 91.363 10.9081C90.9377 10.0576 90.0873 9.63238 88.8115 9.63238H87.8016V20.6885H88.3332ZM103.465 47V1.34027H112.289V47H103.465ZM139.235 47.4252C135.089 47.4252 132.094 46.3976 130.252 44.3423C128.409 42.287 127.488 38.9737 127.488 34.4024V29.9374H136.471V35.6249C136.471 37.8929 137.197 39.0268 138.65 39.0268C139.465 39.0268 140.032 38.7965 140.351 38.3358C140.67 37.8397 140.829 37.0247 140.829 35.8907C140.829 34.4024 140.652 33.1798 140.298 32.223C139.944 31.2308 139.483 30.4158 138.916 29.7779C138.384 29.1046 137.41 28.077 135.992 26.695L132.059 22.7615C129.011 19.7849 127.488 16.4893 127.488 12.8748C127.488 8.9768 128.374 6.01787 130.145 3.998C131.953 1.94269 134.575 0.915034 138.012 0.915034C142.123 0.915034 145.082 2.01356 146.889 4.21061C148.696 6.37223 149.6 9.77412 149.6 14.4163H140.298L140.245 11.2802C140.245 10.6777 140.068 10.1994 139.713 9.84499C139.394 9.49063 138.934 9.31345 138.331 9.31345C137.622 9.31345 137.091 9.50835 136.737 9.89815C136.382 10.2879 136.205 10.8195 136.205 11.4928C136.205 12.9811 137.055 14.5226 138.756 16.1172L144.072 21.2201C145.312 22.4249 146.34 23.5766 147.155 24.6751C147.97 25.7382 148.625 27.0139 149.122 28.5022C149.618 29.9551 149.866 31.6915 149.866 33.7114C149.866 38.2118 149.033 41.6314 147.367 43.9702C145.737 46.2736 143.027 47.4252 139.235 47.4252ZM152.467 47V1.34027H161.291V47H152.467ZM164.935 47V1.34027H178.862L182.689 29.1932L186.516 1.34027H200.549V47H192.203V14.0974L186.941 47H178.755L173.174 14.0974V47H164.935ZM204.593 1.34027H216.659C220.309 1.34027 222.914 2.52739 224.473 4.90162C226.032 7.24042 226.812 10.6777 226.812 15.2136C226.812 19.7495 226.121 23.1691 224.739 25.4724C223.357 27.7758 220.876 28.9275 217.297 28.9275H213.576V47H204.593V1.34027ZM214.108 20.6885C215.206 20.6885 216.004 20.4936 216.5 20.1038C217.031 19.6786 217.368 19.0939 217.51 18.3497C217.687 17.5701 217.776 16.4716 217.776 15.0541C217.776 13.1406 217.563 11.7586 217.138 10.9081C216.713 10.0576 215.862 9.63238 214.586 9.63238H213.576V20.6885H214.108ZM229.665 47V1.34027H238.808V39.2394H248.216V47H229.665ZM250.792 47V1.34027H269.077V10.1639H260.094V19.0407H268.705V27.6518H260.094V38.1232H269.662V47H250.792ZM283.541 47.4252C279.395 47.4252 276.401 46.3976 274.558 44.3423C272.715 42.287 271.794 38.9737 271.794 34.4024V29.9374H280.777V35.6249C280.777 37.8929 281.503 39.0268 282.956 39.0268C283.771 39.0268 284.338 38.7965 284.657 38.3358C284.976 37.8397 285.136 37.0247 285.136 35.8907C285.136 34.4024 284.958 33.1798 284.604 32.223C284.25 31.2308 283.789 30.4158 283.222 29.7779C282.691 29.1046 281.716 28.077 280.299 26.695L276.365 22.7615C273.318 19.7849 271.794 16.4893 271.794 12.8748C271.794 8.9768 272.68 6.01787 274.452 3.998C276.259 1.94269 278.881 0.915034 282.318 0.915034C286.429 0.915034 289.388 2.01356 291.195 4.21061C293.003 6.37223 293.906 9.77412 293.906 14.4163H284.604L284.551 11.2802C284.551 10.6777 284.374 10.1994 284.019 9.84499C283.7 9.49063 283.24 9.31345 282.637 9.31345C281.929 9.31345 281.397 9.50835 281.043 9.89815C280.688 10.2879 280.511 10.8195 280.511 11.4928C280.511 12.9811 281.362 14.5226 283.063 16.1172L288.378 21.2201C289.618 22.4249 290.646 23.5766 291.461 24.6751C292.276 25.7382 292.932 27.0139 293.428 28.5022C293.924 29.9551 294.172 31.6915 294.172 33.7114C294.172 38.2118 293.339 41.6314 291.674 43.9702C290.044 46.2736 287.333 47.4252 283.541 47.4252Z" fill="#001E63"/>
</svg>
