<svg width="434" height="192" viewBox="0 0 434 192" fill="none" xmlns="http://www.w3.org/2000/svg">
<path d="M0 161.159L10.3376 158.831C20.6753 156.328 41.2903 151.937 62.0861 158.831C82.671 165.99 103.376 184.434 123.871 186.937C144.667 189.265 165.462 175.212 185.957 175.212C206.662 175.212 227.247 189.265 248.043 191.592C268.658 194.096 289.333 184.434 310.129 179.911C330.654 175.212 351.419 175.212 371.914 172.884C392.68 170.381 413.204 165.99 423.753 163.486L434 161.159V119H423.662C413.325 119 392.71 119 371.914 119C351.329 119 330.624 119 310.129 119C289.333 119 268.538 119 248.043 119C227.338 119 206.753 119 185.957 119C165.342 119 144.667 119 123.871 119C103.346 119 82.5806 119 62.0861 119C41.3204 119 20.7958 119 10.2472 119H0V161.159Z" fill="#285CD3"/>
<rect width="434" height="133" rx="15" fill="#285CD3"/>
</svg>
